<?xml version="1.0" encoding="UTF-8" standalone="no"?>
<!-- Created with Inkscape (http://www.inkscape.org/) -->

<svg
   width="264.58334mm"
   height="49.076805mm"
   viewBox="0 0 264.58334 49.076805"
   version="1.1"
   id="svg3217"
   inkscape:version="1.3.2 (091e20e, 2023-11-25, custom)"
   sodipodi:docname="Chinabank 2024.svg"
   xmlns:inkscape="http://www.inkscape.org/namespaces/inkscape"
   xmlns:sodipodi="http://sodipodi.sourceforge.net/DTD/sodipodi-0.dtd"
   xmlns="http://www.w3.org/2000/svg"
   xmlns:svg="http://www.w3.org/2000/svg">
  <sodipodi:namedview
     id="namedview3219"
     pagecolor="#505050"
     bordercolor="#eeeeee"
     borderopacity="0"
     inkscape:showpageshadow="true"
     inkscape:pageopacity="0"
     inkscape:pagecheckerboard="false"
     inkscape:deskcolor="#d1d1d1"
     inkscape:document-units="mm"
     showgrid="false"
     inkscape:zoom="0.39597304"
     inkscape:cx="774.04259"
     inkscape:cy="97.228841"
     inkscape:window-width="1920"
     inkscape:window-height="991"
     inkscape:window-x="-9"
     inkscape:window-y="-9"
     inkscape:window-maximized="1"
     inkscape:current-layer="layer1" />
  <defs
     id="defs3214" />
  <g
     inkscape:label="Layer 1"
     inkscape:groupmode="layer"
     id="layer1"
     transform="translate(-82.549994,-123.03125)">
    <g
       id="g1"
       transform="matrix(3.2234714,0,0,3.2234714,-183.54757,-273.55647)">
      <path
         id="path2"
         d="m 92.288535,129.86985 c 0.439209,0 0.795162,-0.35595 0.795162,-0.79516 v -0.56515 c 0,-0.43921 -0.355953,-0.79516 -0.795162,-0.79516 h -4.715933 c -0.183091,0 -0.331963,0.14852 -0.331963,0.33161 v 5.195 c 0,0.18345 0.148872,0.33197 0.331963,0.33197 h 4.715933 c 0.439209,0 0.795162,-0.35596 0.795162,-0.79516 v -0.56515 c 0,-0.43921 -0.355953,-0.79516 -0.795162,-0.79516 h -2.892072 v -1.54764 z"
         style="fill:#ed1a37;fill-opacity:1;fill-rule:nonzero;stroke:none;stroke-width:0.352778"
         clip-path="none" />
      <path
         id="path4"
         d="m 94.312316,131.55048 c 0.119239,0.085 0.243769,0.23707 0.243769,0.72249 v 1.56563 c 0,0.66216 -0.536928,1.19874 -1.199092,1.19874 h -7.212894 c -0.198613,0 -0.359833,-0.16087 -0.359833,-0.35948 v -8.06838 c 0,-0.19826 0.16122,-0.35948 0.359833,-0.35948 h 7.212894 c 0.662164,0 1.199092,0.53692 1.199092,1.19874 v 1.56562 c 0,0.38241 -0.12453,0.63747 -0.243769,0.72249 -0.05715,0.0409 -0.02822,0.13088 0.04198,0.13088 h 2.461331 c 0.529519,0 0.959202,-0.42933 0.959202,-0.95885 v -3.95957 c 0,-1.05904 -0.859013,-1.91806 -1.918405,-1.91806 H 84.468052 c -1.059391,0 -1.918052,0.85902 -1.918052,1.91806 v 11.38872 c 0,1.05939 0.858661,1.91805 1.918052,1.91805 h 11.388372 c 1.059392,0 1.918405,-0.85866 1.918405,-1.91805 v -3.95993 c 0,-0.52952 -0.429683,-0.95885 -0.959202,-0.95885 h -2.461684 c -0.07055,0 -0.09913,0.0903 -0.04163,0.13123"
         style="fill:#ed1a37;fill-opacity:1;fill-rule:nonzero;stroke:none;stroke-width:0.352778"
         clip-path="none" />
      <path
         id="path6"
         d="m 150.70162,135.03522 c -0.1457,0 -0.26388,-0.11959 -0.26388,-0.2667 v -5.75028 c 0,-0.1471 0.11818,-0.2667 0.26388,-0.2667 h 1.56668 c 0.1457,0 0.26388,0.1196 0.26388,0.2667 v 0.31503 c 0,0.11642 0.10337,0.1397 0.16122,0.0466 0.32209,-0.43039 1.00118,-0.74683 1.91029,-0.74683 1.51871,0 2.40489,0.86325 2.40489,2.42253 v 3.71298 c 0,0.14711 -0.11818,0.2667 -0.26388,0.2667 h -1.56668 c -0.1457,0 -0.26388,-0.11959 -0.26388,-0.2667 v -3.28224 c 0,-0.74472 -0.41416,-1.17546 -1.16205,-1.17546 -0.75989,0 -1.21991,0.43074 -1.21991,1.17546 v 3.28224 c 0,0.14711 -0.11818,0.2667 -0.26388,0.2667 z"
         style="fill:#ed1a37;fill-opacity:1;fill-rule:nonzero;stroke:none;stroke-width:0.352778"
         clip-path="none" />
      <path
         id="path8"
         d="m 158.26023,135.03522 c -0.14569,0 -0.26387,-0.11959 -0.26387,-0.2667 v -8.25182 c 0,-0.14746 0.11818,-0.26706 0.26387,-0.26706 h 1.56669 c 0.1457,0 0.26388,0.1196 0.26388,0.26706 v 3.96875 c 0,0.10477 0.0804,0.1397 0.16122,0.0699 l 1.80657,-1.64077 c 0.13794,-0.1397 0.20708,-0.16299 0.40252,-0.16299 h 1.899 c 0.19544,0 0.21837,0.17463 0.0804,0.30269 l -2.10573,1.96638 c -0.0804,0.0815 -0.0921,0.1397 -0.0233,0.24448 l 2.25567,3.43252 c 0.12664,0.18627 0.0575,0.33761 -0.16122,0.33761 h -1.77201 c -0.17286,0 -0.28786,-0.0582 -0.39123,-0.20955 l -1.36948,-2.09444 c -0.0575,-0.10478 -0.13794,-0.10478 -0.23001,-0.0233 l -0.41416,0.38417 c -0.10372,0.0928 -0.13829,0.16263 -0.13829,0.29069 v 1.38571 c 0,0.14711 -0.11818,0.2667 -0.26388,0.2667 z"
         style="fill:#ed1a37;fill-opacity:1;fill-rule:nonzero;stroke:none;stroke-width:0.352778"
         clip-path="none" />
      <path
         id="path10"
         d="m 117.66716,135.03522 c -0.1457,0 -0.26388,-0.11959 -0.26388,-0.2667 v -5.75028 c 0,-0.1471 0.11818,-0.2667 0.26388,-0.2667 h 1.56668 c 0.1457,0 0.26388,0.1196 0.26388,0.2667 v 5.75028 c 0,0.14711 -0.11818,0.2667 -0.26388,0.2667 z"
         style="fill:#ed1a37;fill-opacity:1;fill-rule:nonzero;stroke:none;stroke-width:0.352778"
         clip-path="none" />
      <path
         id="path12"
         d="m 119.49772,126.5167 c 0,-0.14746 -0.11818,-0.2667 -0.26388,-0.2667 h -1.56668 c -0.1457,0 -0.26388,0.11924 -0.26388,0.2667 v 1.42839 c 0,0.14747 0.11818,0.26706 0.26388,0.26706 h 1.56668 c 0.1457,0 0.26388,-0.11959 0.26388,-0.26706 z"
         style="fill:#ed1a37;fill-opacity:1;fill-rule:nonzero;stroke:none;stroke-width:0.352778"
         clip-path="none" />
      <path
         id="path14"
         d="m 105.93059,133.18384 h -1.94204 c -0.48895,0 -0.88512,-0.39617 -0.88512,-0.88512 v -3.27518 c 0,-0.48895 0.39617,-0.88512 0.88512,-0.88512 h 1.94204 c 0.48895,0 0.88512,0.39617 0.88512,0.88512 v 0.59337 c 0,0.14816 0.11889,0.26846 0.26564,0.26846 h 1.56422 c 0.14676,0 0.26564,-0.1203 0.26564,-0.26846 v -0.42827 c 0,-1.66229 -1.34761,-3.00955 -3.00955,-3.00955 h -1.88312 c -1.66194,0 -3.00955,1.34726 -3.00955,3.00955 v 2.94322 c 0,1.66229 1.34761,3.00955 3.00955,3.00955 h 1.88312 c 1.66194,0 3.00955,-1.34726 3.00955,-3.00955 v -0.42651 c 0,-0.14852 -0.11888,-0.26881 -0.26564,-0.26881 h -1.56422 c -0.14675,0 -0.26564,0.12029 -0.26564,0.26881 v 0.59337 c 0,0.48895 -0.39617,0.88512 -0.88512,0.88512"
         style="fill:#ed1a37;fill-opacity:1;fill-rule:nonzero;stroke:none;stroke-width:0.352778"
         clip-path="none" />
      <path
         id="path16"
         d="m 110.09125,135.03522 c -0.14569,0 -0.26387,-0.11959 -0.26387,-0.2667 v -8.25182 c 0,-0.14746 0.11818,-0.26706 0.26387,-0.26706 h 1.56669 c 0.1457,0 0.26388,0.1196 0.26388,0.26706 v 2.81657 c 0,0.11642 0.10336,0.1397 0.16122,0.0466 0.32208,-0.43039 1.00118,-0.74683 1.91029,-0.74683 1.51871,0 2.40488,0.86325 2.40488,2.42253 v 3.71298 c 0,0.14711 -0.11818,0.2667 -0.26387,0.2667 h -1.56669 c -0.1457,0 -0.26388,-0.11959 -0.26388,-0.2667 v -3.28224 c 0,-0.74472 -0.41416,-1.17546 -1.16205,-1.17546 -0.75953,0 -1.2199,0.43074 -1.2199,1.17546 v 3.28224 c 0,0.14711 -0.11818,0.2667 -0.26388,0.2667 z"
         style="fill:#ed1a37;fill-opacity:1;fill-rule:nonzero;stroke:none;stroke-width:0.352778"
         clip-path="none" />
      <path
         id="path18"
         d="m 120.80264,135.03522 c -0.14569,0 -0.26387,-0.11959 -0.26387,-0.2667 v -5.75028 c 0,-0.1471 0.11818,-0.2667 0.26387,-0.2667 h 1.56669 c 0.1457,0 0.26388,0.1196 0.26388,0.2667 v 0.31503 c 0,0.11642 0.10336,0.1397 0.16122,0.0466 0.32208,-0.43039 1.00118,-0.74683 1.91029,-0.74683 1.51871,0 2.40489,0.86325 2.40489,2.42253 v 3.71298 c 0,0.14711 -0.11819,0.2667 -0.26388,0.2667 h -1.56669 c -0.1457,0 -0.26388,-0.11959 -0.26388,-0.2667 v -3.28224 c 0,-0.74472 -0.41416,-1.17546 -1.16205,-1.17546 -0.75953,0 -1.2199,0.43074 -1.2199,1.17546 v 3.28224 c 0,0.14711 -0.11818,0.2667 -0.26388,0.2667 z"
         style="fill:#ed1a37;fill-opacity:1;fill-rule:nonzero;stroke:none;stroke-width:0.352778"
         clip-path="none" />
      <path
         id="path20"
         d="m 130.3033,135.15411 c -1.51906,0 -2.40171,-0.86325 -2.40171,-2.42253 v -1.67569 c 0,-1.55928 0.88265,-2.42253 2.40171,-2.42253 0.78246,0 1.48449,0.2466 1.89865,0.61878 0.0691,0.0582 0.17251,0.0349 0.17251,-0.0582 v -0.17392 c 0,-0.14746 0.11818,-0.26705 0.26388,-0.26705 h 1.56668 c 0.1457,0 0.26388,0.11959 0.26388,0.26705 v 5.74851 c 0,0.14746 -0.11818,0.26705 -0.26388,0.26705 h -1.52047 c -0.14569,0 -0.26388,-0.11959 -0.26388,-0.26705 v -0.17533 c 0,-0.12806 -0.12664,-0.16263 -0.20708,-0.0815 -0.3683,0.38417 -1.1049,0.64241 -1.91029,0.64241 m 0.91264,-4.91279 c -0.75953,0 -1.21991,0.43039 -1.21991,1.17511 v 0.95426 c 0,0.74471 0.41416,1.1751 1.16241,1.1751 0.75953,0 1.21955,-0.43039 1.21955,-1.1751 v -0.95426 c 0,-0.74472 -0.41416,-1.17511 -1.16205,-1.17511"
         style="fill:#ed1a37;fill-opacity:1;fill-rule:nonzero;stroke:none;stroke-width:0.352778"
         clip-path="none" />
      <path
         id="path22"
         d="m 145.24909,135.15411 c -1.51907,0 -2.40172,-0.86325 -2.40172,-2.42253 v -1.67569 c 0,-1.55928 0.88265,-2.42253 2.40172,-2.42253 0.78246,0 1.48448,0.2466 1.89864,0.61878 0.0692,0.0582 0.17251,0.0349 0.17251,-0.0582 v -0.17392 c 0,-0.14746 0.11818,-0.26705 0.26388,-0.26705 h 1.56669 c 0.14569,0 0.26387,0.11959 0.26387,0.26705 v 5.74851 c 0,0.14746 -0.11818,0.26705 -0.26387,0.26705 h -1.52048 c -0.14569,0 -0.26387,-0.11959 -0.26387,-0.26705 v -0.17533 c 0,-0.12806 -0.12665,-0.16263 -0.20708,-0.0815 -0.3683,0.38417 -1.1049,0.64241 -1.91029,0.64241 m 0.91263,-4.91279 c -0.75953,0 -1.2199,0.43039 -1.2199,1.17511 v 0.95426 c 0,0.74471 0.41416,1.1751 1.1624,1.1751 0.75953,0 1.21955,-0.43039 1.21955,-1.1751 v -0.95426 c 0,-0.74472 -0.41416,-1.17511 -1.16205,-1.17511"
         style="fill:#ed1a37;fill-opacity:1;fill-rule:nonzero;stroke:none;stroke-width:0.352778"
         clip-path="none" />
      <path
         id="path24"
         d="m 137.76561,134.51382 c -0.0804,-0.0815 -0.20708,-0.0466 -0.20708,0.0815 v 0.17533 c 0,0.14746 -0.11818,0.2667 -0.26388,0.2667 h -1.52082 c -0.1457,0 -0.26388,-0.11924 -0.26388,-0.2667 v -8.25183 c 0,-0.14746 0.11818,-0.2667 0.26388,-0.2667 h 1.56668 c 0.1457,0 0.26388,0.11924 0.26388,0.2667 v 2.67723 c 0,0.0931 0.10372,0.11642 0.17286,0.0582 0.41416,-0.37253 1.11619,-0.61912 1.89865,-0.61912 1.51871,0 2.40136,0.86324 2.40136,2.42252 v 1.6757 c 0,1.55927 -0.88265,2.42287 -2.40136,2.42287 -0.80574,0 -1.54199,-0.25858 -1.91029,-0.6424 m 1.05516,-4.2725 c -0.75953,0 -1.21991,0.43039 -1.21991,1.17511 v 0.95426 c 0,0.74471 0.41452,1.1751 1.16241,1.1751 0.75953,0 1.2199,-0.43039 1.2199,-1.1751 v -0.95426 c 0,-0.74472 -0.41451,-1.17511 -1.1624,-1.17511"
         style="fill:#ed1a37;fill-opacity:1;fill-rule:nonzero;stroke:none;stroke-width:0.352778"
         clip-path="none" />
    </g>
  </g>
</svg>
